<svg xmlns="http://www.w3.org/2000/svg" viewBox="0 0 54.04 49.77"><defs><style>.cls-1{fill:#8ed9ff;}</style></defs><title>ico atencion</title><g id="Capa_2" data-name="Capa 2"><g id="Capa_1-2" data-name="Capa 1"><path class="cls-1" d="M51,1a6.14,6.14,0,0,0-3.16-1,7.76,7.76,0,0,0-4.75,1.27c-2,1.36-3.2,3.79-3.54,7.22a23.7,23.7,0,0,0,0,3,14.91,14.91,0,0,1-.2,4.05c-.56,2.17-2.66,3.49-4.68,4.09-.17-5.24-1-10-3.27-12.42a5.41,5.41,0,0,0-4.09-1.77H7.4A5.4,5.4,0,0,0,3.31,7.26c-4.26,4.56-3.42,17-2.8,26,.17,2.53.32,4.72.32,6.29,0,8.72,5.72,10.11,6,10.17H27.93c.24-.06,6-1.45,6-10.17,0-1.57.14-3.76.32-6.29.25-3.76.54-8.11.5-12.22,2.49-.66,5.23-2.3,6-5.15a15.26,15.26,0,0,0,.25-4.44,20.91,20.91,0,0,1,0-2.86c.29-3,1.28-5.1,2.94-6.22a6.39,6.39,0,0,1,3.91-1,4.78,4.78,0,0,1,2.46.77c2.78,2,2.52,6.11,2.31,9.44l0,.4c-.18,3-.16,6-.14,8.91,0,2.15,0,4.37,0,6.55-.09,3-.21,7.2-2.83,9.39a4.15,4.15,0,0,1-5.08-.18,5.45,5.45,0,0,1-2-4.91,6.15,6.15,0,0,1,3.2-4.81.68.68,0,1,0-.63-1.2,7.41,7.41,0,0,0-3.93,5.88A6.8,6.8,0,0,0,43.6,37.7,5.75,5.75,0,0,0,47.21,39a5,5,0,0,0,3.19-1.09c3.09-2.58,3.23-7.28,3.32-10.39.07-2.2.05-4.44,0-6.6,0-2.9,0-5.89.14-8.82l0-.4C54.14,8.19,54.43,3.43,51,1ZM32.86,33.21c-.17,2.56-.32,4.77-.32,6.38,0,7.2-4.25,8.65-4.85,8.82H7c-.61-.17-4.84-1.63-4.84-8.82,0-1.61-.15-3.82-.32-6.38C1.3,24.89.44,12.32,4.3,8.19A4,4,0,0,1,7.4,6.85H27.33a4,4,0,0,1,3.1,1.34C34.28,12.32,33.43,24.89,32.86,33.21Z"/><path class="cls-1" d="M22.14,24.68a3.88,3.88,0,0,0-4.48.71,4.28,4.28,0,0,0-.29.36A3.62,3.62,0,0,0,16,24.64a4.18,4.18,0,0,0-3.43,0C9.7,25.8,10.41,28.3,11.17,31a24.77,24.77,0,0,1,1,4.72c.51,6.06,1,8.6,2.6,8.6,1,0,1.17-1.27,1.42-3.18.15-1.18.5-4,1.18-4h0c.68,0,1,2.77,1.19,4,.24,1.91.4,3.18,1.42,3.18,1.61,0,2.08-2.54,2.6-8.6a24.77,24.77,0,0,1,1-4.72C24.31,28.3,25,25.8,22.14,24.68Zm.11,5.9a26.53,26.53,0,0,0-1,5c-.13,1.54-.5,5.91-1.05,7.09-.1-.45-.19-1.16-.26-1.72-.31-2.41-.66-5.14-2.54-5.14h0c-1.87,0-2.22,2.73-2.53,5.14-.07.54-.15,1.22-.25,1.67-.58-1.27-.94-5.52-1.07-7a25.8,25.8,0,0,0-1-5c-.86-3-1-4,.6-4.63a2.94,2.94,0,0,1,2.35-.09,2.73,2.73,0,0,1,1.28,1.47h0a.14.14,0,0,0,0,.06.68.68,0,0,0,.86.37A.69.69,0,0,0,18,27.3a2.77,2.77,0,0,1,1.28-1.44,2.94,2.94,0,0,1,2.35.09C23.24,26.56,23.1,27.58,22.25,30.58Z"/><path class="cls-1" d="M4,19.76H3.32a.68.68,0,0,0,0,1.36H4a.68.68,0,0,0,0-1.36Z"/><path class="cls-1" d="M8,19.76H6.65a.68.68,0,0,0,0,1.36H8a.68.68,0,1,0,0-1.36Z"/><path class="cls-1" d="M14.6,21.12h1.32a.68.68,0,1,0,0-1.36H14.6a.68.68,0,1,0,0,1.36Z"/><path class="cls-1" d="M18.57,21.12H19.9a.68.68,0,0,0,0-1.36H18.57a.68.68,0,0,0,0,1.36Z"/><path class="cls-1" d="M12,21.12a.68.68,0,0,0,0-1.36H10.62a.68.68,0,0,0,0,1.36Z"/><path class="cls-1" d="M23.87,19.76H22.55a.68.68,0,0,0,0,1.36h1.32a.68.68,0,0,0,0-1.36Z"/><path class="cls-1" d="M27.85,19.76H26.52a.68.68,0,0,0,0,1.36h1.33a.68.68,0,0,0,0-1.36Z"/><path class="cls-1" d="M29.82,20.44a.67.67,0,0,0,.68.68h.68a.68.68,0,0,0,0-1.36H30.5A.68.68,0,0,0,29.82,20.44Z"/></g></g></svg>