<svg xmlns="http://www.w3.org/2000/svg" viewBox="0 0 54.9 49.8"><defs><style>.cls-1{fill:#8ed9ff;}</style></defs><title>ico experiencia</title><g id="Capa_2" data-name="Capa 2"><g id="Capa_1-2" data-name="Capa 1"><path class="cls-1" d="M15.63,20.88l.15.18c1.41,1.78,8.58,10.62,11.36,10.62s9.92-8.75,11.33-10.5l.15-.19V14.27h1.21V0H14.44V14.27h1.19Zm21.63-.37c-3.34,4.14-8.58,9.81-10.12,9.81s-6.23-5-10.15-9.92V14.27H37.26ZM38.48,1.36V12.91H15.8V4.15a.67.67,0,0,0,.51.24h1.36a.68.68,0,0,0,0-1.36H16.31a.67.67,0,0,0-.51.24V1.36Z"/><path class="cls-1" d="M51.71,33.25c-2.44-2.69-6.1-4.05-10.88-4.05-6.12,0-11.5,9.88-13.26,13.49-1-2.12-6.05-12.61-11.16-13.38A15.79,15.79,0,0,0,4.78,33,13.35,13.35,0,0,0,0,43.35V49.8H1.36V43.35a12,12,0,0,1,4.3-9.27,14.37,14.37,0,0,1,10.55-3.43c4,.61,8.79,9.57,10.31,13l2.95,5.61,1.2-.64-2.32-4.4c.92-2,6.55-13.67,12.48-13.67,4.37,0,7.69,1.21,9.86,3.59,3.26,3.58,2.83,8.68,2.82,8.8v5.94h1.36V43C54.89,42.78,55.37,37.28,51.71,33.25Z"/><polygon class="cls-1" points="43.95 39.84 41.28 39.84 41.28 41.25 40.23 41.25 40.23 48.89 41.59 48.89 41.59 43.91 43.95 43.91 43.95 42.61 44.85 42.61 44.85 41.25 43.95 41.25 43.95 39.84"/><path class="cls-1" d="M28.54,4.39H29.9A.68.68,0,0,0,29.9,3H28.54a.68.68,0,1,0,0,1.36Z"/><path class="cls-1" d="M20.38,4.39h1.36a.68.68,0,0,0,0-1.36H20.38a.68.68,0,0,0,0,1.36Z"/><path class="cls-1" d="M24.46,4.39h1.36a.68.68,0,0,0,0-1.36H24.46a.68.68,0,1,0,0,1.36Z"/></g></g></svg>