<svg xmlns="http://www.w3.org/2000/svg" viewBox="0 0 56.23 46.96"><defs><style>.cls-1{fill:#8ed9ff;}</style></defs><title>ico innovacion</title><g id="Capa_2" data-name="Capa 2"><g id="Capa_1-2" data-name="Capa 1"><path class="cls-1" d="M54.05,34l-11.7-6.15V6.8c0-.22-.63-5.36-3.78-6.46-1.71-.6-3.75.13-6.07,2.16A5.77,5.77,0,0,0,29.11.17C25.66-.64,22,1.74,21.85,1.84l-.64.42,8.89,10.4.5-.36c1.81-1.28,4.55-4.68,2.63-8.63,2-1.77,3.65-2.48,4.89-2C40.06,2.3,40.86,5.7,41,6.88v11H28.79V13.65l-2-1.76-.9,1,1.53,1.35v3.66H24.66v1.36h2.78v5.21h5.28l1.69-2.44H41v5.11l-4.66-2.45H19.29l-12-15a4,4,0,0,0-2.73-1.5A4.05,4.05,0,0,0,0,11.78a4,4,0,0,0,.86,3L15.37,32.87h7.9v6.46H18.68a3.82,3.82,0,1,0,0,7.63H41.37a3.82,3.82,0,1,0,0-7.63H37V34.24l13.31,7a4,4,0,0,0,1.89.47A4.07,4.07,0,0,0,54.05,34ZM30.29,10.8l-7-8.22C24.39,2,26.71,1,28.81,1.49a4.59,4.59,0,0,1,2.7,1.94l0,0,.12.12a3,3,0,0,1,.2.29C33.73,7.18,31.37,9.83,30.29,10.8Zm3.42,9.89L32,23.13H28.79V19.28H41v1.41ZM43.83,43.14a2.47,2.47,0,0,1-2.46,2.47H18.68a2.47,2.47,0,0,1,0-4.93H41.37A2.47,2.47,0,0,1,43.83,43.14Zm-8.24-3.81h-11V32.87h9.7l1.26.66Zm19-.44A2.77,2.77,0,0,1,50.89,40L34.66,31.51H16L2,13.93a2.72,2.72,0,0,1,2.42-4.4,2.67,2.67,0,0,1,1.82,1L18.63,26.07H36l17.41,9.15A2.72,2.72,0,0,1,54.56,38.89Z"/><rect class="cls-1" x="14.13" y="11.72" width="11.72" height="1.36" transform="translate(-3.25 16.03) rotate(-40.69)"/></g></g></svg>