<svg xmlns="http://www.w3.org/2000/svg" viewBox="0 0 160.35 58.21"><defs><style>.cls-1{fill:none;}.cls-2{fill:#088cc3;}.cls-3{fill:#111944;}</style></defs><title>logo</title><g id="Capa_2" data-name="Capa 2"><g id="Capa_1-2" data-name="Capa 1"><path class="cls-1" d="M83.66,14.77a.77.77,0,0,1-.1.18A.77.77,0,0,0,83.66,14.77Z"/><path class="cls-1" d="M122,35.46c-1.19,0-2.38,0-3.57,0,1.19,0,2.38,0,3.57,0,.9,0,1.82-.07,2.72,0C123.78,35.4,122.86,35.47,122,35.46Z"/><path class="cls-1" d="M131.47,15.2a.63.63,0,0,1-.54-.19.63.63,0,0,0,.54.19c.14,0,.33.05.43-.06C131.8,15.25,131.61,15.18,131.47,15.2Z"/><path class="cls-1" d="M111.09,11.63a.28.28,0,0,0-.14.16A.28.28,0,0,1,111.09,11.63Z"/><path class="cls-1" d="M131,13.21a1,1,0,0,0-.28-.26c.11-.14.2-.31.31-.47-.11.16-.2.33-.31.47A1,1,0,0,1,131,13.21Z"/><path class="cls-1" d="M74.69,14.36c0-.28,0-.58.23-.77C74.69,13.78,74.71,14.08,74.69,14.36Z"/><path class="cls-1" d="M85.72,14.38l.07-.05Z"/><path class="cls-1" d="M129.34,12.84a.94.94,0,0,1-.07.3.94.94,0,0,0,.07-.3c0-.19,0-.3-.19-.34C129.32,12.54,129.37,12.65,129.34,12.84Z"/><path class="cls-1" d="M82.12,15.24a.69.69,0,0,1-.69-.3.69.69,0,0,0,.69.3c.84,0,1.2,0,1.42-.26C83.32,15.24,83,15.24,82.12,15.24Z"/><path class="cls-1" d="M131,12.48l.2-.31Z"/><path class="cls-1" d="M48.15,22.19h0Z"/><path class="cls-1" d="M131.06,13.39a.64.64,0,0,0-.06-.18A.64.64,0,0,1,131.06,13.39Z"/><path class="cls-1" d="M130.8,14.62v0Z"/><path class="cls-2" d="M42,26.56C44.44,23,46.28,19.3,46.4,14.91c.17-6-3.06-12-8.83-14.27A8.34,8.34,0,0,0,27.18,4,5,5,0,0,1,26.1,5.31a10.82,10.82,0,0,1-7.53,2,6.84,6.84,0,0,0-2.3,0c-.64.16-1.27.42-1.39,1.19a1.69,1.69,0,0,0,.76,1.69,3.54,3.54,0,0,0,.85.47A6.33,6.33,0,0,0,23.73,9,23.77,23.77,0,0,1,28.49,4.8a7.75,7.75,0,0,1,3.92-1.32c3.44-.09,7.44,2.64,8.8,6a14.38,14.38,0,0,1,.43,8.75,13.51,13.51,0,0,1-4.37,7.68,17.24,17.24,0,0,0-5.5,9.53,28.7,28.7,0,0,0-.5,6.73c-.06,6.38-2.29,11.64-8.11,15.15.24,0,.32.08.4.06,4.49-1,8.74-3.77,10.14-8.91a54.93,54.93,0,0,0,.89-6.52,24.19,24.19,0,0,1,2.87-9.19C38.78,30.53,40.53,28.65,42,26.56ZM21.7,8.43c-.22.36.1.89-.28,1.08-1.36.72-2.73,1.31-4.35.67a1.2,1.2,0,0,1-.9-1.46c.13-.74.71-.94,1.39-.92h.49a14.72,14.72,0,0,0,3.2.35C21.46,8.15,21.81,8.24,21.7,8.43Z"/><path class="cls-2" d="M9.47,51.77a48.78,48.78,0,0,1-.19-18.46,1,1,0,0,0-.06-.52,43,43,0,0,1-3-8c-1-3.68-1.77-7.4-1.23-11.24A9.11,9.11,0,0,1,8.86,6.85a10.17,10.17,0,0,1,8-1.31,14.5,14.5,0,0,0,6.52.08,6,6,0,0,0,3.24-2c.35-.42.2-.66-.2-.91A7.61,7.61,0,0,0,22.7,1.5c-3-.2-6-.43-9.06-.59A14.11,14.11,0,0,0,6,2.52C2.31,4.55.6,7.85.18,11.87A31.24,31.24,0,0,0,5.8,33.43a2.22,2.22,0,0,1,.48,1.72A35.9,35.9,0,0,0,6,41.28C6.17,47,7.58,52.23,11.19,56.83a.54.54,0,0,0,0-.6A13.64,13.64,0,0,1,9.47,51.77Z"/><path class="cls-2" d="M159.85,21.28c-.24,0-.48,0-.71,0H48c-.38,0-.88-.07-.9.47s.54.38.88.44H156.53c1.1,0,2.2,0,3.29,0a.46.46,0,0,0,.53-.46C160.4,21.34,160.14,21.29,159.85,21.28Z"/><path class="cls-2" d="M159.33,38.67H38a4.18,4.18,0,0,0-.71,0,.43.43,0,0,0-.4.49c0,.27.19.35.42.37s.35,0,.53,0h121.5c.36,0,1,.2,1-.42S159.73,38.67,159.33,38.67Z"/><path class="cls-2" d="M37.85,39.55h0Z"/><path class="cls-2" d="M25,45.79a12.92,12.92,0,0,0-6.83-12.38c-.26-.14-.53-.43-.8-.27s-.11.55-.09.82a65.06,65.06,0,0,1,0,8.72,45.14,45.14,0,0,1-2.18,11.86,33.65,33.65,0,0,1-1.62,3.67,1.17,1.17,0,0,0,.86-.36,10.94,10.94,0,0,0,3-3.72c2-4,2.6-8.22,2.74-12.58,0-1.35,0-2.71,0-4.06l.18,0a8,8,0,0,1,.49.84,13.12,13.12,0,0,1,.62,1.57c1.46,4.69,1.2,9.5,1,14.3,0,.27-.35.62,0,.79s.3-.47.62-.55c.07,0,.09-.2.13-.31A24.36,24.36,0,0,0,25,45.79Z"/><path class="cls-3" d="M109.54,26.68c0-.44-.15-.63-.63-.6-.77,0-1.54,0-2.31,0-.41,0-.56.13-.66.52-.66,2.79-1.36,5.57-2,8.35,0,.16-.17.43,0,.45a9.1,9.1,0,0,0,1.95,0c.45,0,.35-.57.42-.88.44-1.89.85-3.8,1.26-5.68.37.12.33.38.36.61.24,1.74.48,3.47.74,5.2,0,.27,0,.61.31.76a2,2,0,0,0,2.19-.74L114.71,29a1,1,0,0,1,.06.93c-.34,1.26-.67,2.52-1,3.78-.52,1.92-.51,1.91,1.47,1.73.33,0,.44-.16.52-.46q1-4.19,2.07-8.36c.14-.55-.07-.6-.52-.58-.71,0-1.42,0-2.13,0a1,1,0,0,0-1,.55c-.71,1.2-1.46,2.38-2.2,3.56-.51.82-1,1.63-1.62,2.56a3,3,0,0,1-.28-.84A50.7,50.7,0,0,0,109.54,26.68Z"/><path class="cls-3" d="M66.46,35.49c.77,0,1-.23,1.15-.94.36-1.76.82-3.5,1.25-5.3.38.19.43.5.54.76a38.67,38.67,0,0,1,1.76,3.89,2,2,0,0,0,2.54,1.59c.53-.07.75-.19.88-.71q.94-4,2-8c.15-.6,0-.84-.61-.75a2.12,2.12,0,0,1-.71,0c-.65-.11-.86.2-1,.8-.34,1.65-.76,3.29-1.16,4.94a.86.86,0,0,1-.31.64c-.75-1.66-1.56-3.21-2.15-4.85-.45-1.22-1.06-1.74-2.39-1.56-.62.09-.92.18-1.07.84-.55,2.4-1.16,4.78-1.76,7.17C65.06,35.47,65.05,35.41,66.46,35.49Z"/><path class="cls-3" d="M45.58,26.74q-1,4.07-2,8.12c-.13.49,0,.64.46.62.8,0,1.61,0,2.41,0h0c.77,0,1.54,0,2.32,0a5.47,5.47,0,0,0,5.61-6.25,2.69,2.69,0,0,0-1.56-2.42,6.48,6.48,0,0,0-2.75-.71c-1.22,0-2.44,0-3.66,0C45.89,26.06,45.7,26.23,45.58,26.74Zm1.11,5.55c.31-1.24.64-2.47.91-3.71.12-.52.3-.81.88-.72a5.28,5.28,0,0,0,.89,0c2.14,0,3.07,1.32,2.41,3.37-.53,1.66-1.8,2.44-4,2.44C46.34,33.68,46.34,33.68,46.69,32.29Z"/><path class="cls-3" d="M128.5,35.47c.83,0,1.66,0,2.49,0h0c.8,0,1.6,0,2.4,0a5.5,5.5,0,0,0,5.26-3.69c1.07-3.22-.32-5.39-3.67-5.63-1.41-.1-2.84,0-4.27-.05a.47.47,0,0,0-.54.43c-.68,2.82-1.39,5.63-2.09,8.44C128,35.34,128.08,35.48,128.5,35.47Zm2.74-3.21c.31-1.25.64-2.51.92-3.78.1-.45.27-.68.76-.61a8,8,0,0,0,1,0c2.08,0,3,1.25,2.45,3.26-.48,1.72-1.79,2.55-4.06,2.55C130.88,33.68,130.89,33.68,131.24,32.26Z"/><path class="cls-3" d="M64.87,26.08c-2.38,0-4.75,0-7.13,0-.47,0-.66.15-.77.62q-1,4.11-2,8.21c-.14.55.1.58.53.57H59a29.5,29.5,0,0,1,3.12,0c1,.11,1.35-.3,1.49-1.21.08-.51,0-.62-.5-.61-1.36,0-2.73,0-4.1,0s-1.26,0-1-1.3c.13-.73.44-1,1.18-.92,1.3.07,2.61,0,3.92,0,1,.05.86-.78.94-1.29.12-.7-.54-.36-.82-.37-1.28,0-2.56,0-3.83,0-.21,0-.53.08-.58-.11-.14-.5.16-1,.24-1.46s.39-.37.7-.37c1.39,0,2.79-.07,4.18,0,.93.06,1.34-.23,1.46-1.15C65.49,26.23,65.41,26.07,64.87,26.08Z"/><path class="cls-3" d="M127.91,26.08c-2.46,0-4.93,0-7.39,0a.56.56,0,0,0-.66.52c-.65,2.73-1.3,5.46-2,8.18-.14.54-.1.72.52.7,1.19,0,2.38,0,3.57,0,.9,0,1.82-.06,2.72,0l.39,0c1,.1,1.32-.25,1.47-1.19.09-.59,0-.64-.53-.63-1.34,0-2.68,0-4,0s-1.35,0-1.08-1.34c.14-.67.41-.92,1.12-.88,1.18.07,2.38-.06,3.56,0,.92.08,1.28-.28,1.38-1.12,0-.4,0-.59-.47-.57-1.39,0-2.79,0-4.18,0-.22,0-.51.1-.66-.14-.27-.44.49-1.79,1-1.79,1.54,0,3.09-.05,4.63,0,.63,0,.82-.25.9-.77,0-.16-.06-.31.06-.49C128.56,26.22,128.37,26.08,127.91,26.08Z"/><path class="cls-3" d="M147.07,26.06c-.71,0-.95.2-1.1.88-.54,2.43-1.16,4.84-1.75,7.26-.31,1.26-.3,1.19,1,1.29.93.07,1.29-.22,1.43-1.14s.39-2.15,1.58-2.7c.41-.18.58-.25.82.18.57,1,1.19,2.05,1.8,3.07.16.26.25.59.69.57.76,0,1.53,0,2.45,0-1-1.68-1.95-3.25-2.94-4.79-.36-.55-.31-.81.24-1.18,1.5-1,3-2.16,4.66-3.41a18,18,0,0,1-1.83,0,3.28,3.28,0,0,0-2.66.92c-1.12,1-2.35,1.87-3.72,2.94.21-.91.36-1.59.53-2.27C148.66,26.1,148.66,26.14,147.07,26.06Z"/><path class="cls-3" d="M85.43,35.47A.67.67,0,0,0,86.2,35a2.54,2.54,0,0,1,3.13-1.58,3.7,3.7,0,0,0,1.15,0c.72-.13,1,.24,1,.85,0,1,.44,1.37,1.4,1.19a1.63,1.63,0,0,1,.54,0c.67.11.7-.21.59-.75-.5-2.44-1-4.89-1.44-7.33-.26-1.31-.27-1.33-1.61-1.3-.47,0-1-.22-1.39.31l-6.2,9A12.22,12.22,0,0,0,85.43,35.47Zm5.14-7.27c.18,1.22.32,2.21.47,3.19,0,.32-.08.44-.38.44h-2.4C89.05,30.6,89.75,29.5,90.57,28.2Z"/><path class="cls-3" d="M86.24,26.08c-1.28,0-2.56,0-3.84,0h0a30.9,30.9,0,0,1-3.47,0c-1-.12-1.34.32-1.49,1.22-.09.55.1.61.54.6.68,0,1.37,0,2,0s.72.14.57.71c-.45,1.7-.84,3.41-1.26,5.1s-.47,1.82,1.41,1.82c.53,0,.7-.2.81-.68.37-1.62.79-3.23,1.18-4.85.5-2.09.5-2.15,2.64-2.06.93,0,1.3-.24,1.46-1.14C87,26.12,86.76,26.06,86.24,26.08Z"/><path class="cls-3" d="M99.29,27.9c.48-1.92.49-1.9-1.5-1.83-.39,0-.59.12-.68.51-.67,2.77-1.34,5.53-2,8.28-.12.48,0,.63.5.62,1.1,0,2.2,0,3.29,0h0a19.79,19.79,0,0,1,2.67,0c1,.12,1.33-.28,1.5-1.18.11-.6-.07-.65-.55-.64-1.31,0-2.61,0-3.92,0-.57,0-.71-.11-.55-.7C98.48,31.3,98.86,29.59,99.29,27.9Z"/><path class="cls-3" d="M142.12,34.31q.82-3.33,1.64-6.64c.39-1.58.38-1.55-1.25-1.6-.65,0-.91.16-1.06.81-.56,2.45-1.19,4.89-1.79,7.33-.31,1.25-.31,1.25,1,1.25S141.84,35.46,142.12,34.31Z"/><path class="cls-3" d="M61.22,15.2c.25,0,.54,0,.55-.31,0-1,.63-1,1.37-1a.72.72,0,0,0,.49-.16c.54-.44.79-.48.67.35a.89.89,0,0,0,.53,1,1.51,1.51,0,0,0,1.84-2.29,1.43,1.43,0,0,0-1.87,0c-.14.11-.25.23-.47.44a1.75,1.75,0,0,0-2.55-1.66.55.55,0,0,0-.26.44L61,14.68C60.94,14.9,60.83,15.17,61.22,15.2ZM65.06,14c0-.43.19-.83.67-.9s.45.27.51.55c-.06.48-.21.92-.72,1C65.18,14.67,65,14.33,65.06,14ZM62.2,12.89c0-.34,0-.73.58-.68.33,0,.7.06.69.49s-.36.55-.77.55C62.48,13.24,62.15,13.33,62.2,12.89Z"/><path class="cls-3" d="M114.29,15c.2.47.94,0,1.38.22s1-.52,1.45-.19,1.26,0,1.88.15c.14.05.27-.08.3-.25.09-.56.21-1.11.25-1.67s-.38-.74-.87-.76-1.48.13-1.4.57c.1.62-.36.8-.44,1.2s-.18.38-.41.32a.86.86,0,0,1-.52-.28c-.14-.21.1-.36.25-.5.33-.32.91-.63.75-1.07s-.79-.14-1.21-.16-.9-.26-1,.3.62,0,.86.47l-.48.5C114.78,14.21,114.1,14.53,114.29,15Zm3.44-.6c.15-.47.54-.29.88-.35,0,.46-.24.65-.62.64C117.85,14.7,117.68,14.57,117.73,14.41Z"/><path class="cls-3" d="M86.15,15.13A1.34,1.34,0,0,0,87.58,15c.32-.3.53-.27.8,0,.59.58,1.31.12,2,.15.43,0,.21-.75.41-1.12a.53.53,0,0,0,0-.18c.19-1.08-.24-1.5-1.32-1.3-.38.08-.9.22-.78.65s.51.08.79,0a.71.71,0,0,1,.43,0c.25.06.26.31.09.38-.61.26-1.31.19-1.9.63-.24.18-.46-.44-.83-.5.24-.32,1.2-.26.47-.95a1.44,1.44,0,0,0-1.71.25c-.43.68.07.94.57,1.2.22.05.49,0,.52.33a.27.27,0,0,1-.12.21c-.27.1-.51.07-.62-.25h0c-.18,0-.42-.15-.58-.07l-.07.05a.31.31,0,0,0,0,.1C85.56,14.78,85.86,15,86.15,15.13Zm3.34-1.05c.16,0,.33-.09.42.09a.56.56,0,0,1-.46.52c-.19,0-.39,0-.42-.21S89.27,14.14,89.49,14.08Z"/><path class="cls-3" d="M86.37,14.4h0c-.18,0-.42-.15-.58-.07C86,14.25,86.19,14.36,86.37,14.4Z"/><path class="cls-3" d="M67.39,15.2c.35.08.54-.1.59-.47a4.58,4.58,0,0,1,.26-1,.61.61,0,0,1,.69-.45c.48.07.08.43.17.61,0,1,.2,1.27,1.2,1.33.36,0,.41.14.32.42s-.06.49.29.5a.44.44,0,0,0,.47-.42c.17-.88.37-1.74.54-2.62,0-.18.1-.55-.17-.47-.66.2-1.33-.38-2,.08a.35.35,0,0,1-.38.1c-1.38-.51-1.72-.33-2,1.05-.05.26-.11.52-.16.78S67,15.11,67.39,15.2Zm2.47-1.12c0-.46.16-.91.71-1,.35,0,.47.28.5.62-.13.41-.24.88-.79.89C70,14.65,69.83,14.37,69.86,14.08Z"/><path class="cls-3" d="M145,15c.2-.12.44-.48.67-.13.47.74,1.13.24,1.69.31,1.09.14.49-.89.82-1.31.12-.15.05-.46.06-.69a.59.59,0,0,0-.4-.54,1.61,1.61,0,0,0-2,.67.8.8,0,0,0,1-.12.4.4,0,0,1,.57,0,.28.28,0,0,1,.08.22c-.07.26-.31.24-.51.26a16.43,16.43,0,0,0-2.64.9c-.21.07-.39.13-.57,0a.48.48,0,0,1-.12-.57c.23-.52.54-.89,1.13-.41.25.2.46.27.68,0s-.06-.45-.17-.61a1,1,0,0,0-.52-.31,1.34,1.34,0,0,0-1.62.62,1.41,1.41,0,0,0,.05,1.75A1.37,1.37,0,0,0,145,15Zm1.43-.58c.15-.4.51-.29.9-.32-.09.46-.29.67-.68.63A.23.23,0,0,1,146.38,14.38Z"/><path class="cls-3" d="M103,15.2a.39.39,0,0,0,.48-.38,8.38,8.38,0,0,1,.35-1.28.45.45,0,0,1,.53-.37c.32.08.24.35.19.58a4.32,4.32,0,0,0-.16.78c0,.22-.31.54.13.66s.54-.2.61-.54a8.25,8.25,0,0,1,.3-1.11c.08-.23.26-.44.53-.38s.25.35.2.58l-.21,1c0,.18,0,.37.21.4s.41.06.46-.15a5.44,5.44,0,0,0,.37-2,.61.61,0,0,0-.87-.51c-.77.41-1.54-.35-2.2.13-.73-.33-.88.22-.94.61s-.15.93-.23,1.39C102.72,14.89,102.61,15.17,103,15.2Z"/><path class="cls-3" d="M96.92,15.15a1.16,1.16,0,0,1,.3,0c.56.22.72,0,.81-.5.15-.82.33-1.62.5-2.43,0-.22.23-.49-.13-.58a.43.43,0,0,0-.6.44c0,.61-.26.64-.77.49a1.08,1.08,0,0,0-1.26.61,1.53,1.53,0,0,0-.11,1.68A1,1,0,0,0,96.92,15.15ZM96.27,14a.86.86,0,0,1,.68-.88.49.49,0,0,1,.48.61c0,.44-.2.85-.66.91S96.23,14.35,96.27,14Z"/><path class="cls-3" d="M107.26,16.05c.74.22.43-.66.74-1a4.1,4.1,0,0,0,.73.16c.77,0,1.31-.63,1.37-1.56,0-.66-.19-1.12-.9-1.17-1.41-.08-1.53,0-1.81,1.45a4.52,4.52,0,0,0-.17,1C107.22,15.3,106.65,15.87,107.26,16.05Zm.89-2c0-.41.19-.83.7-.89s.49.23.5.6-.15.88-.73.9C108.27,14.63,108.1,14.34,108.15,14Z"/><path class="cls-3" d="M121.15,16.08c.24.05.48,0,.56-.28s.11-.46.18-.78c.18.07.32.13.46.17a1.19,1.19,0,0,0,1.39-.54,1.69,1.69,0,0,0,.18-1.69c-.27-.57-.83-.33-1.32-.39-1-.14-1.11.47-1.22,1.2s-.26,1.21-.4,1.82C120.94,15.79,120.84,16,121.15,16.08Zm1-2.11c0-.43.2-.84.71-.86s.43.38.44.74-.24.79-.75.78S122.08,14.28,122.12,14Z"/><path class="cls-3" d="M137.79,15.12c.09,0,.17.08.25.09a1.22,1.22,0,0,0,1.32-.52,1.68,1.68,0,0,0,.17-1.7c-.23-.55-.73-.51-1.22-.45l-.2.07v-.28h0c0-.12.07-.27.1-.41s0-.25-.24-.32c-.46-.12-.53.23-.6.57L137,13.82C136.78,14.9,136.78,14.89,137.79,15.12Zm-.06-1.06c0-.45.18-.88.73-1,.39,0,.47.32.45.63s-.19.84-.67.91S137.7,14.38,137.73,14.06Z"/><path class="cls-3" d="M138.11,12.33h0c0-.12.07-.27.1-.41C138.18,12.06,138.09,12.21,138.11,12.33Z"/><path class="cls-3" d="M73.81,15.13l.08,0c.55.19.64-.16.76-.57,0,0,0-.05,0-.08a.77.77,0,0,0,0-.15c0-.28,0-.58.23-.77l.14-.09c0-.06-.11-.11-.13-.18-.08-.25.35-.69-.25-.75s-.46.37-.53.67a3,3,0,0,1-.35,1.09c-.15.2-.35.35-.61.23s-.19-.34-.14-.55.13-.63.19-.95.17-.43-.17-.48-.5,0-.54.3c-.06.67-.55,1.32-.24,2S73.29,15.07,73.81,15.13Z"/><path class="cls-3" d="M74.69,14.36a.77.77,0,0,1,0,.15A.77.77,0,0,0,74.69,14.36Z"/><path class="cls-3" d="M75.06,13.5h0Z"/><path class="cls-3" d="M75.06,13.5h0l-.14.09Z"/><path class="cls-3" d="M81.43,14.94a.69.69,0,0,0,.69.3c.84,0,1.2,0,1.42-.26l0,0a.77.77,0,0,0,.1-.18,5.57,5.57,0,0,0,.26-1,6,6,0,0,0,.14-.61c0-.24.22-.55-.23-.61s-.45.16-.51.47a7.11,7.11,0,0,1-.33,1.2.47.47,0,0,1-.62.34c-.31-.1-.22-.37-.18-.6s.15-.63.21-1c0-.17.1-.38-.15-.44s-.47-.07-.54.18a6,6,0,0,0-.35,1.91A.77.77,0,0,0,81.43,14.94Z"/><path class="cls-3" d="M83.56,15l0,0Z"/><path class="cls-3" d="M75.2,13.83a.69.69,0,0,0,0,.13,1,1,0,0,0,.87,1.24,1.23,1.23,0,0,0,1.57-.76c-.41-.24-.7,0-1,.17s-.4.05-.55-.11a.32.32,0,0,1-.08-.24c.07-.24.28-.16.45-.17a7.15,7.15,0,0,1,.8,0c.66.05.67-.34.55-.8a1,1,0,0,0-.89-.76,1.52,1.52,0,0,0-1.37.48c-.17.15-.08.53-.43.51C75.25,13.59,75.23,13.72,75.2,13.83Z"/><path class="cls-3" d="M75.08,13.5Z"/><path class="cls-3" d="M75.2,13.83c0-.11,0-.24-.1-.32h0C75.25,13.59,75.23,13.72,75.2,13.83Z"/><polygon class="cls-3" points="75.08 13.5 75.07 13.51 75.08 13.5 75.08 13.5"/><path class="cls-3" d="M93.17,15.23c1.51.16,1.63.08,1.93-1.43a4.36,4.36,0,0,0,.11-.52c0-.25.32-.6-.19-.71s-.46.2-.52.52a7,7,0,0,1-.31,1.11.52.52,0,0,1-.62.38c-.37-.1-.26-.4-.21-.66s.14-.58.2-.87.12-.44-.19-.48-.48,0-.55.32c-.1.52-.21,1-.31,1.49S92.69,15.18,93.17,15.23Z"/><path class="cls-3" d="M158.38,22.57a1.9,1.9,0,0,0-1.94,1.9,1.95,1.95,0,1,0,1.94-1.9Zm0,3.46a1.5,1.5,0,0,1-1.45-1.59A1.47,1.47,0,0,1,158.44,23a1.62,1.62,0,0,1,1.5,1.58A1.64,1.64,0,0,1,158.33,26Z"/><path class="cls-3" d="M100.79,15.2a1.25,1.25,0,0,0,1.58-.77c-.4-.23-.69,0-1,.17a.38.38,0,0,1-.55-.08.35.35,0,0,1-.09-.31c.09-.21.3-.1.47-.12s.41,0,.62,0,.57.15.7-.18a1,1,0,0,0-.21-1,1.19,1.19,0,0,0-1.45-.31,1.53,1.53,0,0,0-1,1.64A1,1,0,0,0,100.79,15.2Z"/><path class="cls-3" d="M111.64,14.19c.06.72.51,1,1.23,1.06a2,2,0,0,0,.31,0c.37-.12.9-.29.76-.69s-.54-.09-.81.07a.41.41,0,0,1-.56-.07c-.07-.08-.16-.22-.13-.29.11-.26.36-.14.55-.15s.47,0,.71,0c.72.06.7-.38.54-.85a1.14,1.14,0,0,0-1.44-.7A1.54,1.54,0,0,0,111.64,14.19Z"/><path class="cls-3" d="M141.05,15.24a1.51,1.51,0,0,0,1.59-1.53,1.11,1.11,0,0,0-1.21-1.21,1.51,1.51,0,0,0-1.54,1.59A1.06,1.06,0,0,0,141.05,15.24Zm.28-2.14c.45,0,.52.29.51.58,0,.44-.15.85-.62,1s-.51-.21-.52-.54A.9.9,0,0,1,141.33,13.1Z"/><path class="cls-3" d="M133.12,15.24c1.33.18,1.65-.05,1.94-1.37.05-.23.11-.46.14-.69s.32-.54-.17-.61-.5.18-.57.52a7,7,0,0,1-.32,1.19.46.46,0,0,1-.57.31c-.32-.08-.27-.33-.22-.58s.16-.63.21-.95.13-.44-.2-.48-.47-.05-.53.29c-.1.52-.23,1-.29,1.32C132.46,14.89,132.64,15.17,133.12,15.24Z"/><path class="cls-3" d="M125.43,15.25A1.49,1.49,0,0,0,127,13.72a1.09,1.09,0,0,0-1.18-1.23A1.46,1.46,0,0,0,124.31,14,1.06,1.06,0,0,0,125.43,15.25ZM125.06,14c.06-.46.24-.9.78-.91.32,0,.45.3.41.58a1,1,0,0,1-.72,1A.58.58,0,0,1,125.06,14Z"/><path class="cls-3" d="M79.66,14.34c0,.4,0,.67.28.79a.71.71,0,0,0,.83-.06c.28-.31-.23-.41-.24-.61,0-.5-.13-1.09.44-1.37.83-.42-.44-.63-.08-1,.11-.12-.09-.3-.31-.29a4.15,4.15,0,0,0-1,1.09C80.18,13.38,79.64,13.93,79.66,14.34Z"/><path class="cls-3" d="M131,13.21a.64.64,0,0,1,.06.18c.05.33-.26.69-.26,1v.21a.75.75,0,0,0,.13.39.63.63,0,0,0,.54.19c.14,0,.33.05.43-.06l0-.06c.09-.2,0-.32-.16-.5a1,1,0,0,1,.09-1.33c.53-.33.6-.44.18-.94-.14-.16,0-.73-.45-.49a1.26,1.26,0,0,0-.38.35l-.2.31c-.11.16-.2.33-.31.47A1,1,0,0,1,131,13.21Z"/><path class="cls-3" d="M130.93,15a.75.75,0,0,1-.13-.39A.75.75,0,0,0,130.93,15Z"/><path class="cls-3" d="M91.37,15.2a.4.4,0,0,0,.5-.36c.18-.9.37-1.8.56-2.7,0-.23.16-.5-.22-.54a.4.4,0,0,0-.5.36c-.19.93-.39,1.86-.62,2.95C91.07,15,91.06,15.17,91.37,15.2Z"/><path class="cls-3" d="M127.37,15.19c.19,0,.44.08.53-.17a3.1,3.1,0,0,0,.15-.6c.13-.58.2-1.21,1-1.2a.21.21,0,0,0,.19-.08.94.94,0,0,0,.07-.3c0-.19,0-.3-.19-.34h-.08c-1-.11-1.39.17-1.61,1.18-.08.35-.16.69-.23,1C127.19,14.89,127,15.13,127.37,15.19Z"/><path class="cls-3" d="M129.27,13.14a.21.21,0,0,1-.19.08A.21.21,0,0,0,129.27,13.14Z"/><path class="cls-3" d="M110.52,15.2a.45.45,0,0,0,.57-.4c.11-.58.23-1.16.36-1.81-.06-.08.19-.36-.17-.41s-.51,0-.58.36c-.1.58-.24,1.15-.35,1.73C110.31,14.87,110.09,15.14,110.52,15.2Z"/><path class="cls-3" d="M111.27,12.22c.24,0,.38-.08.41-.33s-.1-.3-.3-.31a1.35,1.35,0,0,0-.29.05.28.28,0,0,0-.14.16.2.2,0,0,0,0,.09C110.88,12.16,111,12.22,111.27,12.22Z"/><path class="cls-3" d="M111.68,11.89c0-.24-.1-.3-.3-.31a.93.93,0,0,0-.29.05,1.35,1.35,0,0,1,.29-.05C111.58,11.59,111.71,11.65,111.68,11.89Z"/><path class="cls-3" d="M158.36,23.45c-1-.13-.78.52-.79,1.06a.27.27,0,0,0,0,.09c.07.29-.18.74.2.86s.17-.4.34-.55.23-.15.3-.12c.82.37.77-.51.81-.74C159.31,23.52,158.79,23.51,158.36,23.45Z"/><text></text></g></g></svg>